<?xml version="1.0" encoding="UTF-8" standalone="no"?>
<!DOCTYPE svg PUBLIC "-//W3C//DTD SVG 1.1//EN"
 "http://www.w3.org/Graphics/SVG/1.1/DTD/svg11.dtd">
<!-- Generated by graphviz version 14.1.4 (0)
 -->
<!-- Title: dependency&#45;cruiser output Pages: 1 -->
<svg width="351pt" height="260pt"
 viewBox="0.00 0.00 351.00 260.00" xmlns="http://www.w3.org/2000/svg" xmlns:xlink="http://www.w3.org/1999/xlink">
<g id="graph0" class="graph" transform="scale(1 1) rotate(0) translate(4 256)">
<title>dependency&#45;cruiser output</title>
<polygon fill="white" stroke="none" points="-4,4 -4,-256 347.25,-256 347.25,4 -4,4"/>
<g id="clust1" class="cluster">
<title>cluster_src</title>
<path fill="#ffffff" stroke="black" stroke-width="2" d="M20,-8C20,-8 323.25,-8 323.25,-8 329.25,-8 335.25,-14 335.25,-20 335.25,-20 335.25,-232 335.25,-232 335.25,-238 329.25,-244 323.25,-244 323.25,-244 20,-244 20,-244 14,-244 8,-238 8,-232 8,-232 8,-20 8,-20 8,-14 14,-8 20,-8"/>
<text xml:space="preserve" text-anchor="middle" x="171.62" y="-231.45" font-family="Helvetica,sans-Serif" font-weight="bold" font-size="9.00">src</text>
</g>
<g id="clust2" class="cluster">
<title>cluster_src/common</title>
<path fill="#ffffff" stroke="black" stroke-width="2" d="M98,-93C98,-93 169,-93 169,-93 175,-93 181,-99 181,-105 181,-105 181,-136 181,-136 181,-142 175,-148 169,-148 169,-148 98,-148 98,-148 92,-148 86,-142 86,-136 86,-136 86,-105 86,-105 86,-99 92,-93 98,-93"/>
<text xml:space="preserve" text-anchor="middle" x="133.5" y="-135.45" font-family="Helvetica,sans-Serif" font-weight="bold" font-size="9.00">common</text>
</g>
<g id="clust3" class="cluster">
<title>cluster_src/domain</title>
<path fill="#ffffff" stroke="black" stroke-width="2" d="M28,-16C28,-16 315.25,-16 315.25,-16 321.25,-16 327.25,-22 327.25,-28 327.25,-28 327.25,-73 327.25,-73 327.25,-79 321.25,-85 315.25,-85 315.25,-85 28,-85 28,-85 22,-85 16,-79 16,-73 16,-73 16,-28 16,-28 16,-22 22,-16 28,-16"/>
<text xml:space="preserve" text-anchor="middle" x="171.62" y="-72.45" font-family="Helvetica,sans-Serif" font-weight="bold" font-size="9.00">domain</text>
</g>
<g id="clust4" class="cluster">
<title>cluster_src/infrastructure</title>
<path fill="#ffffff" stroke="black" stroke-width="2" d="M110.5,-162C110.5,-162 239,-162 239,-162 245,-162 251,-168 251,-174 251,-174 251,-205 251,-205 251,-211 245,-217 239,-217 239,-217 110.5,-217 110.5,-217 104.5,-217 98.5,-211 98.5,-205 98.5,-205 98.5,-174 98.5,-174 98.5,-168 104.5,-162 110.5,-162"/>
<text xml:space="preserve" text-anchor="middle" x="174.75" y="-204.45" font-family="Helvetica,sans-Serif" font-weight="bold" font-size="9.00">infrastructure</text>
</g>
<!-- src/common/VersionUtils.ts -->
<g id="node1" class="node">
<title>src/common/VersionUtils.ts</title>
<g id="a_node1"><a xlink:href="src/common/VersionUtils.ts" xlink:title="VersionUtils.ts">
<path fill="#ddfeff" stroke="black" d="M166.58,-120.62C166.58,-120.62 100.42,-120.62 100.42,-120.62 97.21,-120.62 94,-117.42 94,-114.21 94,-114.21 94,-107.79 94,-107.79 94,-104.58 97.21,-101.38 100.42,-101.38 100.42,-101.38 166.58,-101.38 166.58,-101.38 169.79,-101.38 173,-104.58 173,-107.79 173,-107.79 173,-114.21 173,-114.21 173,-117.42 169.79,-120.62 166.58,-120.62"/>
<text xml:space="preserve" text-anchor="start" x="102" y="-107.62" font-family="Helvetica,sans-Serif" font-size="9.00">VersionUtils.ts</text>
</a>
</g>
</g>
<!-- src/domain/constants -->
<g id="node2" class="node">
<title>src/domain/constants</title>
<g id="a_node2"><a xlink:href="src/domain/constants" xlink:title="constants">
<polygon fill="#ffffcc" stroke="black" points="319.25,-50.62 261.14,-50.62 259,-48.49 259,-31.38 317.11,-31.38 319.25,-33.51 319.25,-50.62"/>
<polyline fill="none" stroke="black" points="317.11,-48.49 259,-48.49"/>
<polyline fill="none" stroke="black" points="317.11,-48.49 317.11,-31.38"/>
<polyline fill="none" stroke="black" points="317.11,-48.49 319.25,-50.62"/>
<text xml:space="preserve" text-anchor="start" x="267" y="-37.62" font-family="Helvetica,sans-Serif" font-size="9.00">constants</text>
</a>
</g>
</g>
<!-- src/domain/entities -->
<g id="node3" class="node">
<title>src/domain/entities</title>
<g id="a_node3"><a xlink:href="src/domain/entities" xlink:title="entities">
<polygon fill="#ffffcc" stroke="black" points="243,-50.62 191.14,-50.62 189,-48.49 189,-31.38 240.86,-31.38 243,-33.51 243,-50.62"/>
<polyline fill="none" stroke="black" points="240.86,-48.49 189,-48.49"/>
<polyline fill="none" stroke="black" points="240.86,-48.49 240.86,-31.38"/>
<polyline fill="none" stroke="black" points="240.86,-48.49 243,-50.62"/>
<text xml:space="preserve" text-anchor="start" x="199.5" y="-37.62" font-family="Helvetica,sans-Serif" font-size="9.00">entities</text>
</a>
</g>
</g>
<!-- src/domain/entities&#45;&gt;src/domain/constants -->
<g id="edge1" class="edge">
<title>src/domain/entities&#45;&gt;src/domain/constants</title>
<path fill="none" stroke="#000000" stroke-width="2" stroke-opacity="0.200000" d="M243.48,-41C245.47,-41 247.5,-41 249.55,-41"/>
<polygon fill="#000000" fill-opacity="0.200000" stroke="#000000" stroke-width="2" stroke-opacity="0.200000" points="249.48,-43.1 255.48,-41 249.48,-38.9 249.48,-43.1"/>
</g>
<!-- src/domain/repositories -->
<g id="node4" class="node">
<title>src/domain/repositories</title>
<g id="a_node4"><a xlink:href="src/domain/repositories" xlink:title="repositories">
<polygon fill="#ffffcc" stroke="black" points="167.38,-57.62 101.76,-57.62 99.62,-55.49 99.62,-38.38 165.24,-38.38 167.38,-40.51 167.38,-57.62"/>
<polyline fill="none" stroke="black" points="165.24,-55.49 99.62,-55.49"/>
<polyline fill="none" stroke="black" points="165.24,-55.49 165.24,-38.38"/>
<polyline fill="none" stroke="black" points="165.24,-55.49 167.38,-57.62"/>
<text xml:space="preserve" text-anchor="start" x="107.62" y="-44.62" font-family="Helvetica,sans-Serif" font-size="9.00">repositories</text>
</a>
</g>
</g>
<!-- src/domain/repositories&#45;&gt;src/domain/entities -->
<g id="edge2" class="edge">
<title>src/domain/repositories&#45;&gt;src/domain/entities</title>
<path fill="none" stroke="#000000" stroke-width="2" stroke-opacity="0.200000" d="M167.71,-45.11C171.61,-44.77 175.59,-44.43 179.52,-44.09"/>
<polygon fill="#000000" fill-opacity="0.200000" stroke="#000000" stroke-width="2" stroke-opacity="0.200000" points="179.69,-46.18 185.49,-43.57 179.33,-41.99 179.69,-46.18"/>
</g>
<!-- src/domain/services -->
<g id="node5" class="node">
<title>src/domain/services</title>
<g id="a_node5"><a xlink:href="src/domain/services" xlink:title="services">
<polygon fill="#ffffcc" stroke="black" points="78,-57.62 26.14,-57.62 24,-55.49 24,-38.38 75.86,-38.38 78,-40.51 78,-57.62"/>
<polyline fill="none" stroke="black" points="75.86,-55.49 24,-55.49"/>
<polyline fill="none" stroke="black" points="75.86,-55.49 75.86,-38.38"/>
<polyline fill="none" stroke="black" points="75.86,-55.49 78,-57.62"/>
<text xml:space="preserve" text-anchor="start" x="33" y="-44.62" font-family="Helvetica,sans-Serif" font-size="9.00">services</text>
</a>
</g>
</g>
<!-- src/domain/services&#45;&gt;src/common/VersionUtils.ts -->
<g id="edge7" class="edge">
<title>src/domain/services&#45;&gt;src/common/VersionUtils.ts</title>
<path fill="none" stroke="#000000" stroke-width="2" stroke-opacity="0.200000" d="M58.62,-57.88C64.88,-66.64 74.94,-79.36 86,-88 90.29,-91.35 95.14,-94.39 100.05,-97.1"/>
<polygon fill="#000000" fill-opacity="0.200000" stroke="#000000" stroke-width="2" stroke-opacity="0.200000" points="98.75,-98.79 105.05,-99.67 100.68,-95.06 98.75,-98.79"/>
</g>
<!-- src/domain/services&#45;&gt;src/domain/entities -->
<g id="edge3" class="edge">
<title>src/domain/services&#45;&gt;src/domain/entities</title>
<path fill="none" stroke="#000000" stroke-width="2" stroke-opacity="0.200000" d="M69.47,-37.99C74.63,-35.53 80.4,-33.25 86,-32 124.63,-23.36 137.53,-26.13 179.89,-32.11"/>
<polygon fill="#000000" fill-opacity="0.200000" stroke="#000000" stroke-width="2" stroke-opacity="0.200000" points="179.55,-34.18 185.78,-32.92 180.12,-30.02 179.55,-34.18"/>
</g>
<!-- src/domain/services&#45;&gt;src/domain/repositories -->
<g id="edge4" class="edge">
<title>src/domain/services&#45;&gt;src/domain/repositories</title>
<path fill="none" stroke="#000000" stroke-width="2" stroke-opacity="0.200000" d="M78.36,-48C82.23,-48 86.29,-48 90.39,-48"/>
<polygon fill="#000000" fill-opacity="0.200000" stroke="#000000" stroke-width="2" stroke-opacity="0.200000" points="90.29,-50.1 96.29,-48 90.29,-45.9 90.29,-50.1"/>
</g>
<!-- src/infrastructure/api -->
<g id="node6" class="node">
<title>src/infrastructure/api</title>
<g id="a_node6"><a xlink:href="src/infrastructure/api" xlink:title="api">
<polygon fill="#ffffcc" stroke="black" points="243,-189.62 191.14,-189.62 189,-187.49 189,-170.38 240.86,-170.38 243,-172.51 243,-189.62"/>
<polyline fill="none" stroke="black" points="240.86,-187.49 189,-187.49"/>
<polyline fill="none" stroke="black" points="240.86,-187.49 240.86,-170.38"/>
<polyline fill="none" stroke="black" points="240.86,-187.49 243,-189.62"/>
<text xml:space="preserve" text-anchor="start" x="209.25" y="-176.62" font-family="Helvetica,sans-Serif" font-size="9.00">api</text>
</a>
</g>
</g>
<!-- src/domain/services&#45;&gt;src/infrastructure/api -->
<g id="edge5" class="edge">
<title>src/domain/services&#45;&gt;src/infrastructure/api</title>
<path fill="none" stroke="#000000" stroke-width="2" stroke-opacity="0.200000" d="M52.04,-58.11C52.72,-79.07 57.48,-127.27 86,-151 118.76,-178.26 140.14,-151.9 181,-164 183.4,-164.71 185.85,-165.57 188.28,-166.52"/>
<polygon fill="#000000" fill-opacity="0.200000" stroke="#000000" stroke-width="2" stroke-opacity="0.200000" points="187.22,-168.35 193.56,-168.78 188.87,-164.49 187.22,-168.35"/>
</g>
<!-- src/infrastructure/storage -->
<g id="node7" class="node">
<title>src/infrastructure/storage</title>
<g id="a_node7"><a xlink:href="src/infrastructure/storage" xlink:title="storage">
<polygon fill="#ffffcc" stroke="black" points="160.5,-189.62 108.64,-189.62 106.5,-187.49 106.5,-170.38 158.36,-170.38 160.5,-172.51 160.5,-189.62"/>
<polyline fill="none" stroke="black" points="158.36,-187.49 106.5,-187.49"/>
<polyline fill="none" stroke="black" points="158.36,-187.49 158.36,-170.38"/>
<polyline fill="none" stroke="black" points="158.36,-187.49 160.5,-189.62"/>
<text xml:space="preserve" text-anchor="start" x="116.62" y="-176.62" font-family="Helvetica,sans-Serif" font-size="9.00">storage</text>
</a>
</g>
</g>
<!-- src/domain/services&#45;&gt;src/infrastructure/storage -->
<g id="edge6" class="edge">
<title>src/domain/services&#45;&gt;src/infrastructure/storage</title>
<path fill="none" stroke="#000000" stroke-width="2" stroke-opacity="0.200000" d="M52.23,-57.82C53.25,-79.28 58.58,-130.83 86,-161 89.46,-164.8 93.79,-167.86 98.4,-170.32"/>
<polygon fill="#000000" fill-opacity="0.200000" stroke="#000000" stroke-width="2" stroke-opacity="0.200000" points="97.25,-172.1 103.58,-172.66 98.98,-168.28 97.25,-172.1"/>
</g>
<!-- src/infrastructure/storage&#45;&gt;src/infrastructure/api -->
<g id="edge8" class="edge">
<title>src/infrastructure/storage&#45;&gt;src/infrastructure/api</title>
<path fill="none" stroke="#000000" stroke-width="2" stroke-opacity="0.200000" d="M160.86,-180C166.84,-180 173.28,-180 179.56,-180"/>
<polygon fill="#000000" fill-opacity="0.200000" stroke="#000000" stroke-width="2" stroke-opacity="0.200000" points="179.56,-182.1 185.55,-180 179.55,-177.9 179.56,-182.1"/>
</g>
</g>
</svg>
