<?xml version="1.0" encoding="UTF-8" standalone="no"?>
<!DOCTYPE svg PUBLIC "-//W3C//DTD SVG 1.1//EN"
 "http://www.w3.org/Graphics/SVG/1.1/DTD/svg11.dtd">
<!-- Generated by graphviz version 14.1.4 (0)
 -->
<!-- Title: dependency&#45;cruiser output Pages: 1 -->
<svg width="332pt" height="202pt"
 viewBox="0.00 0.00 332.00 202.00" xmlns="http://www.w3.org/2000/svg" xmlns:xlink="http://www.w3.org/1999/xlink">
<g id="graph0" class="graph" transform="scale(1 1) rotate(0) translate(4 198)">
<title>dependency&#45;cruiser output</title>
<polygon fill="white" stroke="none" points="-4,4 -4,-198 327.75,-198 327.75,4 -4,4"/>
<g id="clust1" class="cluster">
<title>cluster_src</title>
<path fill="#ffffff" stroke="black" stroke-width="2" d="M20,-8C20,-8 303.75,-8 303.75,-8 309.75,-8 315.75,-14 315.75,-20 315.75,-20 315.75,-174 315.75,-174 315.75,-180 309.75,-186 303.75,-186 303.75,-186 20,-186 20,-186 14,-186 8,-180 8,-174 8,-174 8,-20 8,-20 8,-14 14,-8 20,-8"/>
<text xml:space="preserve" text-anchor="middle" x="161.88" y="-173.45" font-family="Helvetica,sans-Serif" font-weight="bold" font-size="9.00">src</text>
</g>
<!-- src/components -->
<g id="node1" class="node">
<title>src/components</title>
<g id="a_node1"><a xlink:href="src/components" xlink:title="components">
<polygon fill="#ffffcc" stroke="black" points="172.75,-98.62 102.64,-98.62 100.5,-96.49 100.5,-79.38 170.61,-79.38 172.75,-81.51 172.75,-98.62"/>
<polyline fill="none" stroke="black" points="170.61,-96.49 100.5,-96.49"/>
<polyline fill="none" stroke="black" points="170.61,-96.49 170.61,-79.38"/>
<polyline fill="none" stroke="black" points="170.61,-96.49 172.75,-98.62"/>
<text xml:space="preserve" text-anchor="start" x="108.5" y="-85.62" font-family="Helvetica,sans-Serif" font-size="9.00">components</text>
</a>
</g>
</g>
<!-- src/contexts -->
<g id="node2" class="node">
<title>src/contexts</title>
<g id="a_node2"><a xlink:href="src/contexts" xlink:title="contexts">
<polygon fill="#ffffcc" stroke="black" points="240.75,-35.62 187.89,-35.62 185.75,-33.49 185.75,-16.38 238.61,-16.38 240.75,-18.51 240.75,-35.62"/>
<polyline fill="none" stroke="black" points="238.61,-33.49 185.75,-33.49"/>
<polyline fill="none" stroke="black" points="238.61,-33.49 238.61,-16.38"/>
<polyline fill="none" stroke="black" points="238.61,-33.49 240.75,-35.62"/>
<text xml:space="preserve" text-anchor="start" x="193.75" y="-22.62" font-family="Helvetica,sans-Serif" font-size="9.00">contexts</text>
</a>
</g>
</g>
<!-- src/components&#45;&gt;src/contexts -->
<g id="edge1" class="edge">
<title>src/components&#45;&gt;src/contexts</title>
<path fill="none" stroke="#000000" stroke-width="2" stroke-opacity="0.200000" d="M146.17,-79.01C154.3,-69.84 167.27,-56.03 185.91,-41.45"/>
<polygon fill="#000000" fill-opacity="0.200000" stroke="#000000" stroke-width="2" stroke-opacity="0.200000" points="187.11,-43.18 190.62,-37.88 184.57,-39.83 187.11,-43.18"/>
</g>
<!-- src/router.ts -->
<g id="node3" class="node">
<title>src/router.ts</title>
<g id="a_node3"><a xlink:href="src/router.ts" xlink:title="router.ts">
<path fill="#ddfeff" stroke="black" d="M233.96,-66.62C233.96,-66.62 192.54,-66.62 192.54,-66.62 189.33,-66.62 186.12,-63.42 186.12,-60.21 186.12,-60.21 186.12,-53.79 186.12,-53.79 186.12,-50.58 189.33,-47.38 192.54,-47.38 192.54,-47.38 233.96,-47.38 233.96,-47.38 237.17,-47.38 240.38,-50.58 240.38,-53.79 240.38,-53.79 240.38,-60.21 240.38,-60.21 240.38,-63.42 237.17,-66.62 233.96,-66.62"/>
<text xml:space="preserve" text-anchor="start" x="194.12" y="-53.62" font-family="Helvetica,sans-Serif" font-size="9.00">router.ts</text>
</a>
</g>
</g>
<!-- src/components&#45;&gt;src/router.ts -->
<g id="edge2" class="edge">
<title>src/components&#45;&gt;src/router.ts</title>
<path fill="none" stroke="#000000" stroke-width="2" stroke-opacity="0.200000" d="M161.24,-78.88C167.42,-76.22 174.19,-73.32 180.72,-70.52"/>
<polygon fill="#000000" fill-opacity="0.200000" stroke="#000000" stroke-width="2" stroke-opacity="0.200000" points="181.32,-72.55 186.01,-68.25 179.67,-68.69 181.32,-72.55"/>
</g>
<!-- src/services -->
<g id="node4" class="node">
<title>src/services</title>
<g id="a_node4"><a xlink:href="src/services" xlink:title="services">
<polygon fill="#ffffcc" stroke="black" points="240.25,-112.62 188.39,-112.62 186.25,-110.49 186.25,-93.38 238.11,-93.38 240.25,-95.51 240.25,-112.62"/>
<polyline fill="none" stroke="black" points="238.11,-110.49 186.25,-110.49"/>
<polyline fill="none" stroke="black" points="238.11,-110.49 238.11,-93.38"/>
<polyline fill="none" stroke="black" points="238.11,-110.49 240.25,-112.62"/>
<text xml:space="preserve" text-anchor="start" x="195.25" y="-99.62" font-family="Helvetica,sans-Serif" font-size="9.00">services</text>
</a>
</g>
</g>
<!-- src/components&#45;&gt;src/services -->
<g id="edge3" class="edge">
<title>src/components&#45;&gt;src/services</title>
<path fill="none" stroke="#000000" stroke-width="2" stroke-opacity="0.200000" d="M173.19,-95.67C174.55,-95.93 175.91,-96.18 177.27,-96.44"/>
<polygon fill="#000000" fill-opacity="0.200000" stroke="#000000" stroke-width="2" stroke-opacity="0.200000" points="176.85,-98.5 183.14,-97.54 177.63,-94.37 176.85,-98.5"/>
</g>
<!-- src/storage -->
<g id="node5" class="node">
<title>src/storage</title>
<g id="a_node5"><a xlink:href="src/storage" xlink:title="storage">
<polygon fill="#ffffcc" stroke="black" points="307.75,-89.62 255.89,-89.62 253.75,-87.49 253.75,-70.38 305.61,-70.38 307.75,-72.51 307.75,-89.62"/>
<polyline fill="none" stroke="black" points="305.61,-87.49 253.75,-87.49"/>
<polyline fill="none" stroke="black" points="305.61,-87.49 305.61,-70.38"/>
<polyline fill="none" stroke="black" points="305.61,-87.49 307.75,-89.62"/>
<text xml:space="preserve" text-anchor="start" x="263.88" y="-76.62" font-family="Helvetica,sans-Serif" font-size="9.00">storage</text>
</a>
</g>
</g>
<!-- src/components&#45;&gt;src/storage -->
<g id="edge4" class="edge">
<title>src/components&#45;&gt;src/storage</title>
<path fill="none" stroke="#000000" stroke-width="2" stroke-opacity="0.200000" d="M173.12,-86.75C194.99,-85.37 222.92,-83.6 244.7,-82.22"/>
<polygon fill="#000000" fill-opacity="0.200000" stroke="#000000" stroke-width="2" stroke-opacity="0.200000" points="244.75,-84.32 250.61,-81.85 244.49,-80.13 244.75,-84.32"/>
</g>
<!-- src/models -->
<g id="node6" class="node">
<title>src/models</title>
<g id="a_node6"><a xlink:href="src/models" xlink:title="models">
<polygon fill="#ccffcc" stroke="black" points="307.75,-127.62 255.89,-127.62 253.75,-125.49 253.75,-108.38 305.61,-108.38 307.75,-110.51 307.75,-127.62"/>
<polyline fill="none" stroke="black" points="305.61,-125.49 253.75,-125.49"/>
<polyline fill="none" stroke="black" points="305.61,-125.49 305.61,-108.38"/>
<polyline fill="none" stroke="black" points="305.61,-125.49 307.75,-127.62"/>
<text xml:space="preserve" text-anchor="start" x="264.62" y="-114.62" font-family="Helvetica,sans-Serif" font-size="9.00">models</text>
</a>
</g>
</g>
<!-- src/components&#45;&gt;src/models -->
<g id="edge5" class="edge">
<title>src/components&#45;&gt;src/models</title>
<path fill="none" stroke="#000000" stroke-opacity="0.200000" d="M149.37,-98.96C158.6,-106.09 172.12,-115.1 185.75,-119 205.28,-124.59 228.04,-124.51 246.28,-122.95"/>
<polygon fill="none" stroke="#000000" stroke-opacity="0.200000" points="246.01,-125.08 251.77,-122.41 245.6,-120.9 246.01,-125.08"/>
</g>
<!-- src/utils -->
<g id="node7" class="node">
<title>src/utils</title>
<g id="a_node7"><a xlink:href="src/utils" xlink:title="utils">
<polygon fill="#ffffcc" stroke="black" points="240.25,-158.62 188.39,-158.62 186.25,-156.49 186.25,-139.38 238.11,-139.38 240.25,-141.51 240.25,-158.62"/>
<polyline fill="none" stroke="black" points="238.11,-156.49 186.25,-156.49"/>
<polyline fill="none" stroke="black" points="238.11,-156.49 238.11,-139.38"/>
<polyline fill="none" stroke="black" points="238.11,-156.49 240.25,-158.62"/>
<text xml:space="preserve" text-anchor="start" x="203.88" y="-145.62" font-family="Helvetica,sans-Serif" font-size="9.00">utils</text>
</a>
</g>
</g>
<!-- src/components&#45;&gt;src/utils -->
<g id="edge6" class="edge">
<title>src/components&#45;&gt;src/utils</title>
<path fill="none" stroke="#000000" stroke-width="2" stroke-opacity="0.200000" d="M148.88,-99.05C158.49,-107.52 172.78,-119.86 185.75,-130 187.31,-131.22 188.93,-132.46 190.58,-133.69"/>
<polygon fill="#000000" fill-opacity="0.200000" stroke="#000000" stroke-width="2" stroke-opacity="0.200000" points="189.26,-135.33 195.34,-137.17 191.74,-131.94 189.26,-135.33"/>
</g>
<!-- src/router.ts&#45;&gt;src/storage -->
<g id="edge8" class="edge">
<title>src/router.ts&#45;&gt;src/storage</title>
<path fill="none" stroke="#000000" stroke-width="2" stroke-opacity="0.200000" d="M240.51,-66.22C242.12,-66.78 243.74,-67.35 245.37,-67.93"/>
<polygon fill="#000000" fill-opacity="0.200000" stroke="#000000" stroke-width="2" stroke-opacity="0.200000" points="244.27,-69.77 250.62,-69.77 245.66,-65.8 244.27,-69.77"/>
</g>
<!-- src/services&#45;&gt;src/storage -->
<g id="edge9" class="edge">
<title>src/services&#45;&gt;src/storage</title>
<path fill="none" stroke="#000000" stroke-width="2" stroke-opacity="0.200000" d="M240.51,-93.78C242.12,-93.22 243.74,-92.65 245.37,-92.07"/>
<polygon fill="#000000" fill-opacity="0.200000" stroke="#000000" stroke-width="2" stroke-opacity="0.200000" points="245.66,-94.2 250.62,-90.23 244.27,-90.23 245.66,-94.2"/>
</g>
<!-- src/services&#45;&gt;src/models -->
<g id="edge10" class="edge">
<title>src/services&#45;&gt;src/models</title>
<path fill="none" stroke="#000000" stroke-width="2" stroke-opacity="0.200000" d="M240.51,-109.01C241.98,-109.35 243.47,-109.69 244.96,-110.03"/>
<polygon fill="#000000" fill-opacity="0.200000" stroke="#000000" stroke-width="2" stroke-opacity="0.200000" points="244.21,-112.02 250.53,-111.31 245.15,-107.92 244.21,-112.02"/>
</g>
<!-- src/main.ts -->
<g id="node8" class="node">
<title>src/main.ts</title>
<g id="a_node8"><a xlink:href="src/main.ts" xlink:title="main.ts">
<path fill="#ddfeff" stroke="black" d="M72.33,-98.62C72.33,-98.62 31.17,-98.62 31.17,-98.62 27.96,-98.62 24.75,-95.42 24.75,-92.21 24.75,-92.21 24.75,-85.79 24.75,-85.79 24.75,-82.58 27.96,-79.38 31.17,-79.38 31.17,-79.38 72.33,-79.38 72.33,-79.38 75.54,-79.38 78.75,-82.58 78.75,-85.79 78.75,-85.79 78.75,-92.21 78.75,-92.21 78.75,-95.42 75.54,-98.62 72.33,-98.62"/>
<text xml:space="preserve" text-anchor="start" x="34.88" y="-85.62" font-family="Helvetica,sans-Serif" font-size="9.00">main.ts</text>
</a>
</g>
</g>
<!-- src/main.ts&#45;&gt;src/components -->
<g id="edge7" class="edge">
<title>src/main.ts&#45;&gt;src/components</title>
<path fill="none" stroke="#000000" stroke-width="2" stroke-opacity="0.200000" d="M78.97,-89C82.97,-89 87.19,-89 91.44,-89"/>
<polygon fill="#000000" fill-opacity="0.200000" stroke="#000000" stroke-width="2" stroke-opacity="0.200000" points="91.15,-91.1 97.15,-89 91.15,-86.9 91.15,-91.1"/>
</g>
<!-- src/vite&#45;env.d.ts -->
<g id="node9" class="node">
<title>src/vite&#45;env.d.ts</title>
<g id="a_node9"><a xlink:href="src/vite-env.d.ts" xlink:title="vite&#45;env.d.ts">
<path fill="#ccffcc" stroke="black" d="M81.08,-148.62C81.08,-148.62 22.42,-148.62 22.42,-148.62 19.21,-148.62 16,-145.42 16,-142.21 16,-142.21 16,-135.79 16,-135.79 16,-132.58 19.21,-129.38 22.42,-129.38 22.42,-129.38 81.08,-129.38 81.08,-129.38 84.29,-129.38 87.5,-132.58 87.5,-135.79 87.5,-135.79 87.5,-142.21 87.5,-142.21 87.5,-145.42 84.29,-148.62 81.08,-148.62"/>
<text xml:space="preserve" text-anchor="start" x="24" y="-135.62" font-family="Helvetica,sans-Serif" font-size="9.00">vite&#45;env.d.ts</text>
</a>
</g>
</g>
</g>
</svg>
